<svg width="1000" height="1000" viewBox="0 0 1000 1000" fill="none" xmlns="http://www.w3.org/2000/svg">
<path d="M634.561 77.6572L634.568 77.6621L638.763 80.0078V919.994L634.568 922.34L634.561 922.345L495.151 1000L353.534 919.967V507.509L455.227 451.184V863.747L483.411 888.752L495.27 896.15L507.111 889.993L544.8 863.312V130.271L495.652 95.1406L455.227 129.823V170.723L450.622 172.974L450.614 172.979L353.534 220.296V80.0322L495.151 0L634.561 77.6572ZM1000 243.763V369.321L810.667 245.02L810.666 491.361L833.46 481.281L1000 387.236V494.488L810.667 594.304V724.103L1000 616.757V742.896L995.889 745.257L995.873 745.264L712.839 906.869V89.7979L1000 243.763ZM277.501 487.628L273.321 489.976L273.314 489.979L95.8955 589.332V815.101L0 762.662V255.998L277.501 99.6973V487.628ZM95.8955 310.917V482.568L101.132 480.437L187.402 429.379V259.635L95.8955 310.917ZM499.417 77.6621L558.076 119.595L558.089 119.603L499.416 77.6611L499.417 77.6621Z" fill="black"/>
</svg>
